<?xml version="1.0" encoding="UTF-8" standalone="no"?>
<svg
   class="_2c0ad1d3"
   aria-label="Introduction to Machine Learning"
   id="Capa_1"
   enable-background="new 0 0 512 512"
   height="512.00006"
   viewBox="0 0 632.19495 512.00006"
   width="632.19495"
   version="1.1"
   sodipodi:docname="logo.svg"
   inkscape:version="1.2.2 (b0a8486541, 2022-12-01)"
   xmlns:inkscape="http://www.inkscape.org/namespaces/inkscape"
   xmlns:sodipodi="http://sodipodi.sourceforge.net/DTD/sodipodi-0.dtd"
   xmlns="http://www.w3.org/2000/svg"
   xmlns:svg="http://www.w3.org/2000/svg">
  <sodipodi:namedview
     id="namedview19"
     pagecolor="#ffffff"
     bordercolor="#999999"
     borderopacity="1"
     inkscape:showpageshadow="0"
     inkscape:pageopacity="0"
     inkscape:pagecheckerboard="0"
     inkscape:deskcolor="#d1d1d1"
     showgrid="false"
     inkscape:zoom="1.040377"
     inkscape:cx="589.20951"
     inkscape:cy="278.74512"
     inkscape:window-width="1566"
     inkscape:window-height="1055"
     inkscape:window-x="118"
     inkscape:window-y="35"
     inkscape:window-maximized="1"
     inkscape:current-layer="Capa_1" />
  <defs
     id="defs35" />
  <g
     id="g30"
     transform="translate(120.19225,6.5346658e-5)">
    <path
       d="M 211,0 C 205.847,-0.009 201.017,0.914 196,1.318 113.062,8.004 49.452,69.24 34.677,143.174 c -5.684,28.462 -4.834,56.602 2.52,83.76 L 0,289.19 61,332.652 V 420 h 60 v 92 h 75 135 v -63.216 c 0,-61.45 14.985,-126.533 45.806,-198.955 C 386.225,227.695 391,204.199 391,180 391,81.288 311.399,0.189 211,0 Z"
       fill="#66b3ff"
       id="path2" />
    <path
       d="m 331,448.784 c 0,-61.45 14.985,-126.533 45.806,-198.955 C 386.225,227.695 391,204.199 391,180 391,81.288 311.399,0.189 211,0 205.847,-0.009 201.017,0.914 196,1.318 V 512 h 135 z"
       fill="#4d88ff"
       id="path4" />
    <path
       d="m 256,180 h 181 v 30 H 256 Z"
       fill="#cce6ff"
       id="path6" />
    <path
       d="m 467,240 c -24.814,0 -45,-20.186 -45,-45 0,-24.814 20.186,-45 45,-45 24.814,0 45,20.186 45,45 0,24.814 -20.186,45 -45,45 z"
       fill="#4d88ff"
       id="path8" />
    <path
       d="M 435.184,304.395 400.789,270 H 196 v -30 h 217.211 l 43.184,43.184 z"
       fill="#cce6ff"
       id="path10" />
    <path
       d="m 467,360 c -24.814,0 -45,-20.186 -45,-45 0,-24.814 20.186,-45 45,-45 24.814,0 45,20.186 45,45 0,24.814 -20.186,45 -45,45 z"
       fill="#4d88ff"
       id="path12" />
    <path
       d="M 413.211,150 H 196 v -30 h 204.789 l 34.395,-34.394 21.211,21.21 z"
       fill="#cce6ff"
       id="path14" />
    <path
       d="m 467,120 c -24.814,0 -45,-20.186 -45,-45 0,-24.814 20.186,-45 45,-45 24.814,0 45,20.186 45,45 0,24.814 -20.186,45 -45,45 z"
       fill="#4d88ff"
       id="path16" />
    <circle
       cx="196"
       cy="195"
       fill="#e6f7ff"
       r="75"
       id="circle18" />
    <path
       d="m 271,195 c 0,-41.353 -33.647,-75 -75,-75 v 150 c 41.353,0 75,-33.647 75,-75 z"
       fill="#cce6ff"
       id="path20" />
    <circle
       cx="196"
       cy="195"
       fill="#66b3ff"
       r="45"
       id="circle22" />
    <path
       d="m 241,195 c 0,-24.813 -20.187,-45 -45,-45 v 90 c 24.814,0 45,-20.187 45,-45 z"
       fill="#4d88ff"
       id="path24" />
    <path
       d="m 196,180 h -15 v 30 h 15 15 v -30 z"
       fill="#e6f7ff"
       id="path26" />
    <path
       d="m 196,180 h 15 v 30 h -15 z"
       fill="#cce6ff"
       id="path28" />
  </g>
  <g
     id="g153"
     transform="translate(120.19225,6.5346658e-5)">
    <path
       d="M 211,0 C 205.847,-0.009 201.017,0.914 196,1.318 113.062,8.004 49.452,69.24 34.677,143.174 c -5.684,28.462 -4.834,56.602 2.52,83.76 L 0,289.19 61,332.652 V 420 h 60 v 92 h 75 135 v -63.216 c 0,-61.45 14.985,-126.533 45.806,-198.955 C 386.225,227.695 391,204.199 391,180 391,81.288 311.399,0.189 211,0 Z"
       fill="#66b3ff"
       id="path125" />
    <path
       d="m 331,448.784 c 0,-61.45 14.985,-126.533 45.806,-198.955 C 386.225,227.695 391,204.199 391,180 391,81.288 311.399,0.189 211,0 205.847,-0.009 201.017,0.914 196,1.318 V 512 h 135 z"
       fill="#4d88ff"
       id="path127" />
    <path
       d="m 256,180 h 181 v 30 H 256 Z"
       fill="#cce6ff"
       id="path129" />
    <path
       d="m 467,240 c -24.814,0 -45,-20.186 -45,-45 0,-24.814 20.186,-45 45,-45 24.814,0 45,20.186 45,45 0,24.814 -20.186,45 -45,45 z"
       fill="#4d88ff"
       id="path131" />
    <path
       d="M 435.184,304.395 400.789,270 H 196 v -30 h 217.211 l 43.184,43.184 z"
       fill="#cce6ff"
       id="path133" />
    <path
       d="m 467,360 c -24.814,0 -45,-20.186 -45,-45 0,-24.814 20.186,-45 45,-45 24.814,0 45,20.186 45,45 0,24.814 -20.186,45 -45,45 z"
       fill="#4d88ff"
       id="path135" />
    <path
       d="M 413.211,150 H 196 v -30 h 204.789 l 34.395,-34.394 21.211,21.21 z"
       fill="#cce6ff"
       id="path137" />
    <path
       d="m 467,120 c -24.814,0 -45,-20.186 -45,-45 0,-24.814 20.186,-45 45,-45 24.814,0 45,20.186 45,45 0,24.814 -20.186,45 -45,45 z"
       fill="#4d88ff"
       id="path139" />
    <circle
       cx="196"
       cy="195"
       fill="#e6f7ff"
       r="75"
       id="circle141" />
    <path
       d="m 271,195 c 0,-41.353 -33.647,-75 -75,-75 v 150 c 41.353,0 75,-33.647 75,-75 z"
       fill="#cce6ff"
       id="path143" />
    <circle
       cx="196"
       cy="195"
       fill="#66b3ff"
       r="45"
       id="circle145" />
    <path
       d="m 241,195 c 0,-24.813 -20.187,-45 -45,-45 v 90 c 24.814,0 45,-20.187 45,-45 z"
       fill="#4d88ff"
       id="path147" />
    <path
       d="m 196,180 h -15 v 30 h 15 15 v -30 z"
       fill="#e6f7ff"
       id="path149" />
    <path
       d="m 196,180 h 15 v 30 h -15 z"
       fill="#cce6ff"
       id="path151" />
  </g>
</svg>
